<svg width="160" height="40" viewBox="0 0 160 40" fill="none" xmlns="http://www.w3.org/2000/svg">
  <path d="M12 4C14.2091 4 16 5.79086 16 8V16H24C26.2091 16 28 17.7909 28 20V20C28 22.2091 26.2091 24 24 24H16V32C16 34.2091 14.2091 36 12 36V36C9.79086 36 8 34.2091 8 32V24H0C-2.20914 24 -4 22.2091 -4 20V20C-4 17.7909 -2.20914 16 0 16H8V8C8 5.79086 9.79086 4 12 4V4Z" fill="#5F6FFF" transform="translate(4,0) scale(0.8)"/>
  <text x="35" y="28" font-family="Arial, sans-serif" font-weight="bold" font-size="24" fill="#5F6FFF">CarePoint</text>
</svg>
